# Blender v2.79 (sub 0) OBJ File: 'forklift.blend'
# www.blender.org
mtllib forklift.mtl
o Cube.001
v -1.440098 -0.980210 1.117747
v -1.440098 0.219790 1.117747
v -1.440098 -0.980210 -1.082253
v -1.440098 0.219790 -1.082253
v 0.759902 -0.980210 1.117747
v 0.759902 0.219790 1.117747
v 0.759902 -0.980210 -1.082253
v 0.759902 0.219790 -1.082253
v 0.483083 0.219790 -1.082253
v 0.486769 0.219790 1.117747
v -1.440098 -0.980210 -0.767967
v -1.440098 -0.980210 -0.453681
v -1.440098 -0.980210 -0.139396
v -1.440098 -0.980210 0.174890
v -1.440098 -0.980210 0.489176
v -1.440098 -0.980210 0.803462
v -1.440098 0.219790 0.803462
v -1.440098 0.219790 0.489176
v -1.440098 0.219790 0.174890
v -1.440098 0.219790 -0.139396
v -1.440098 0.219790 -0.453681
v -1.440098 0.219790 -0.767967
v 0.759902 -0.980210 0.803462
v 0.759902 -0.980210 0.489176
v 0.759902 -0.980210 0.174890
v 0.759902 -0.980210 -0.139396
v 0.759902 -0.980210 -0.453681
v 0.759902 -0.980210 -0.767967
v 0.759902 0.219790 -0.767967
v 0.759902 0.219790 -0.453681
v 0.759902 0.219790 -0.139396
v 0.759902 0.219790 0.174890
v 0.759902 0.219790 0.489176
v 0.759902 0.219790 0.803462
v 0.486243 0.219790 0.803462
v 0.485716 0.219790 0.489176
v 0.485189 0.219790 0.174890
v 0.484663 0.219790 -0.139396
v 0.484136 0.219790 -0.453681
v 0.483609 0.219790 -0.767967
v 0.759902 1.219790 0.489176
v 0.759902 1.219790 0.803462
v 0.486243 1.219790 0.803462
v 0.485716 1.219790 0.489176
v 0.759902 1.219790 -0.767967
v 0.759902 1.219790 -0.453681
v 0.484136 1.219790 -0.453681
v 0.483609 1.219790 -0.767967
v 0.759902 2.219790 -0.767967
v 0.759902 2.219790 -0.453681
v 0.484136 2.219790 -0.453681
v 0.483609 2.219790 -0.767967
v 0.759902 2.219790 0.489176
v 0.759902 2.219790 0.803462
v 0.486243 2.219790 0.803462
v 0.485716 2.219790 0.489176
v -1.664260 0.559791 0.011293
v -1.664260 0.559791 -0.628707
v -1.658111 0.497362 0.011293
v -1.658111 0.497362 -0.628707
v -1.639901 0.437333 0.011293
v -1.639901 0.437333 -0.628707
v -1.610330 0.382009 0.011293
v -1.610330 0.382009 -0.628707
v -1.570534 0.333517 0.011293
v -1.570534 0.333517 -0.628707
v -1.522042 0.293721 0.011293
v -1.522042 0.293721 -0.628707
v -1.466719 0.264150 0.011293
v -1.466719 0.264150 -0.628707
v -1.406689 0.245940 0.011293
v -1.406689 0.245940 -0.628707
v -1.344260 0.239791 0.011293
v -1.344260 0.239791 -0.628707
v -1.281831 0.245940 0.011293
v -1.281831 0.245940 -0.628707
v -1.221801 0.264150 0.011293
v -1.221801 0.264150 -0.628707
v -1.166477 0.293721 0.011293
v -1.166477 0.293721 -0.628707
v -1.117986 0.333517 0.011293
v -1.117986 0.333517 -0.628707
v -1.078189 0.382009 0.011293
v -1.078190 0.382009 -0.628707
v -1.048618 0.437333 0.011293
v -1.048618 0.437333 -0.628707
v -1.030409 0.497363 0.011293
v -1.030409 0.497362 -0.628707
v -1.024260 0.559791 0.011293
v -1.024260 0.559791 -0.628707
v -1.030409 0.622220 0.011293
v -1.030409 0.622220 -0.628707
v -1.048618 0.682250 0.011293
v -1.048619 0.682250 -0.628707
v -1.078190 0.737574 0.011293
v -1.078190 0.737574 -0.628707
v -1.117986 0.786066 0.011293
v -1.117986 0.786066 -0.628707
v -1.166478 0.825862 0.011293
v -1.166478 0.825862 -0.628707
v -1.221802 0.855433 0.011293
v -1.221802 0.855433 -0.628707
v -1.281831 0.873643 0.011293
v -1.281831 0.873643 -0.628707
v -1.344260 0.879791 0.011293
v -1.344260 0.879791 -0.628707
v -1.406689 0.873643 0.011293
v -1.406689 0.873643 -0.628707
v -1.466719 0.855433 0.011293
v -1.466719 0.855432 -0.628707
v -1.522043 0.825861 0.011293
v -1.522043 0.825861 -0.628707
v -1.570534 0.786065 0.011293
v -1.570534 0.786065 -0.628707
v -1.610330 0.737573 0.011293
v -1.610330 0.737573 -0.628707
v -1.639902 0.682250 0.011293
v -1.639902 0.682250 -0.628707
v -1.658111 0.622220 0.011293
v -1.658111 0.622220 -0.628707
v -1.664260 0.559791 0.651293
v -1.658111 0.497362 0.651293
v -1.639901 0.437333 0.651293
v -1.610330 0.382009 0.651293
v -1.570534 0.333517 0.651293
v -1.522042 0.293721 0.651293
v -1.466718 0.264150 0.651293
v -1.406689 0.245940 0.651293
v -1.344260 0.239791 0.651293
v -1.281831 0.245940 0.651293
v -1.221801 0.264150 0.651293
v -1.166477 0.293721 0.651293
v -1.117986 0.333517 0.651293
v -1.078189 0.382009 0.651293
v -1.048618 0.437333 0.651293
v -1.030409 0.497363 0.651293
v -1.024260 0.559791 0.651293
v -1.030409 0.622220 0.651293
v -1.048618 0.682250 0.651293
v -1.078190 0.737574 0.651293
v -1.117986 0.786066 0.651293
v -1.166478 0.825862 0.651293
v -1.221801 0.855433 0.651293
v -1.281831 0.873643 0.651293
v -1.344260 0.879791 0.651293
v -1.406689 0.873643 0.651293
v -1.466719 0.855433 0.651293
v -1.522043 0.825861 0.651293
v -1.570534 0.786065 0.651293
v -1.610330 0.737573 0.651293
v -1.639901 0.682250 0.651293
v -1.658111 0.622220 0.651293
vn -1.0000 0.0000 0.0000
vn 0.0000 0.0000 -1.0000
vn 1.0000 0.0000 0.0000
vn 0.0000 0.0000 1.0000
vn 0.0000 -1.0000 0.0000
vn 0.0000 1.0000 0.0000
vn -1.0000 0.0000 0.0017
vn -0.9952 -0.0980 0.0000
vn -0.9569 -0.2903 0.0000
vn -0.8819 -0.4714 0.0000
vn -0.7730 -0.6344 0.0000
vn -0.6344 -0.7730 0.0000
vn -0.4714 -0.8819 0.0000
vn -0.2903 -0.9569 0.0000
vn -0.0980 -0.9952 0.0000
vn 0.0980 -0.9952 0.0000
vn 0.2903 -0.9569 0.0000
vn 0.4714 -0.8819 0.0000
vn 0.6344 -0.7730 -0.0000
vn 0.7730 -0.6344 -0.0000
vn 0.8819 -0.4714 -0.0000
vn 0.9569 -0.2903 0.0000
vn 0.9952 -0.0980 0.0000
vn 0.9952 0.0980 0.0000
vn 0.9569 0.2903 -0.0000
vn 0.8819 0.4714 -0.0000
vn 0.7730 0.6344 -0.0000
vn 0.6344 0.7730 -0.0000
vn 0.4714 0.8819 -0.0000
vn 0.2903 0.9569 -0.0000
vn 0.0980 0.9952 -0.0000
vn -0.0980 0.9952 0.0000
vn -0.2903 0.9569 -0.0000
vn -0.4714 0.8819 -0.0000
vn -0.6344 0.7730 0.0000
vn -0.7730 0.6344 0.0000
vn -0.8819 0.4714 0.0000
vn -0.9569 0.2903 0.0000
vn -0.9952 0.0980 0.0000
usemtl None
s off
f 11//1 22//1 4//1 3//1
f 3//2 4//2 9//2 8//2 7//2
f 23//3 34//3 6//3 5//3
f 5//4 6//4 10//4 2//4 1//4
f 16//5 23//5 5//5 1//5
f 34//6 35//6 10//6 6//6
f 10//6 35//6 17//6 2//6
f 40//6 9//6 4//6 22//6
f 35//6 36//6 18//6 17//6
f 36//6 37//6 19//6 18//6
f 37//6 38//6 20//6 19//6
f 38//6 39//6 21//6 20//6
f 39//6 40//6 22//6 21//6
f 8//6 9//6 40//6 29//6
f 39//4 30//4 46//4 47//4
f 30//6 39//6 38//6 31//6
f 31//6 38//6 37//6 32//6
f 32//6 37//6 36//6 33//6
f 33//2 36//2 44//2 41//2
f 3//5 7//5 28//5 11//5
f 11//5 28//5 27//5 12//5
f 12//5 27//5 26//5 13//5
f 13//5 26//5 25//5 14//5
f 14//5 25//5 24//5 15//5
f 15//5 24//5 23//5 16//5
f 7//3 8//3 29//3 28//3
f 28//3 29//3 30//3 27//3
f 27//3 30//3 31//3 26//3
f 26//3 31//3 32//3 25//3
f 25//3 32//3 33//3 24//3
f 24//3 33//3 34//3 23//3
f 1//1 2//1 17//1 16//1
f 16//1 17//1 18//1 15//1
f 15//1 18//1 19//1 14//1
f 14//1 19//1 20//1 13//1
f 13//1 20//1 21//1 12//1
f 12//1 21//1 22//1 11//1
f 41//2 44//2 56//2 53//2
f 36//7 35//7 43//7 44//7
f 34//3 33//3 41//3 42//3
f 35//4 34//4 42//4 43//4
f 45//2 48//2 52//2 49//2
f 40//7 39//7 47//7 48//7
f 29//2 40//2 48//2 45//2
f 30//3 29//3 45//3 46//3
f 49//6 52//6 51//6 50//6
f 46//3 45//3 49//3 50//3
f 47//4 46//4 50//4 51//4
f 48//7 47//7 51//7 52//7
f 53//6 56//6 55//6 54//6
f 42//3 41//3 53//3 54//3
f 43//4 42//4 54//4 55//4
f 44//7 43//7 55//7 56//7
f 57//8 58//8 60//8 59//8
f 59//9 60//9 62//9 61//9
f 61//10 62//10 64//10 63//10
f 63//11 64//11 66//11 65//11
f 65//12 66//12 68//12 67//12
f 67//13 68//13 70//13 69//13
f 69//14 70//14 72//14 71//14
f 71//15 72//15 74//15 73//15
f 73//16 74//16 76//16 75//16
f 75//17 76//17 78//17 77//17
f 77//18 78//18 80//18 79//18
f 79//19 80//19 82//19 81//19
f 81//20 82//20 84//20 83//20
f 83//21 84//21 86//21 85//21
f 85//22 86//22 88//22 87//22
f 87//23 88//23 90//23 89//23
f 89//24 90//24 92//24 91//24
f 91//25 92//25 94//25 93//25
f 93//26 94//26 96//26 95//26
f 95//27 96//27 98//27 97//27
f 97//28 98//28 100//28 99//28
f 99//29 100//29 102//29 101//29
f 101//30 102//30 104//30 103//30
f 103//31 104//31 106//31 105//31
f 105//32 106//32 108//32 107//32
f 107//33 108//33 110//33 109//33
f 109//34 110//34 112//34 111//34
f 111//35 112//35 114//35 113//35
f 113//36 114//36 116//36 115//36
f 115//37 116//37 118//37 117//37
f 60//2 58//2 120//2 118//2 116//2 114//2 112//2 110//2 108//2 106//2 104//2 102//2 100//2 98//2 96//2 94//2 92//2 90//2 88//2 86//2 84//2 82//2 80//2 78//2 76//2 74//2 72//2 70//2 68//2 66//2 64//2 62//2
f 117//38 118//38 120//38 119//38
f 119//39 120//39 58//39 57//39
f 69//14 71//14 128//14 127//14
f 121//4 122//4 123//4 124//4 125//4 126//4 127//4 128//4 129//4 130//4 131//4 132//4 133//4 134//4 135//4 136//4 137//4 138//4 139//4 140//4 141//4 142//4 143//4 144//4 145//4 146//4 147//4 148//4 149//4 150//4 151//4 152//4
f 87//23 89//23 137//23 136//23
f 105//32 107//32 146//32 145//32
f 61//10 63//10 124//10 123//10
f 79//19 81//19 133//19 132//19
f 97//28 99//28 142//28 141//28
f 115//37 117//37 151//37 150//37
f 71//15 73//15 129//15 128//15
f 89//24 91//24 138//24 137//24
f 107//33 109//33 147//33 146//33
f 63//11 65//11 125//11 124//11
f 81//20 83//20 134//20 133//20
f 99//29 101//29 143//29 142//29
f 117//38 119//38 152//38 151//38
f 73//16 75//16 130//16 129//16
f 91//25 93//25 139//25 138//25
f 109//34 111//34 148//34 147//34
f 65//12 67//12 126//12 125//12
f 83//21 85//21 135//21 134//21
f 101//30 103//30 144//30 143//30
f 57//8 59//8 122//8 121//8
f 119//39 57//39 121//39 152//39
f 75//17 77//17 131//17 130//17
f 93//26 95//26 140//26 139//26
f 111//35 113//35 149//35 148//35
f 67//13 69//13 127//13 126//13
f 85//22 87//22 136//22 135//22
f 103//31 105//31 145//31 144//31
f 59//9 61//9 123//9 122//9
f 77//18 79//18 132//18 131//18
f 95//27 97//27 141//27 140//27
f 113//36 115//36 150//36 149//36
o Cube
v 1.000000 -1.000000 -1.000000
v 1.000000 -1.000000 1.000000
v 0.786298 -1.000000 1.000000
v 0.786298 -1.000000 -1.000000
v 1.000000 -0.169667 -0.999999
v 0.999999 -0.169667 1.000001
v 0.786298 -0.169667 1.000000
v 0.786298 -0.169667 -1.000000
v 1.000000 -0.169667 -0.020685
v 1.000000 -1.000000 -0.003495
v 1.000000 -0.540307 -1.000000
v 1.000000 -0.528409 1.000000
v 1.000000 -0.534403 -0.007497
v 1.000000 -1.000000 -0.003495
v 1.000000 -1.000000 1.000000
v 1.000000 -0.534403 -0.007497
v 1.000000 -0.528409 1.000000
v 1.000000 -1.000000 -0.003495
v 1.000000 -1.000000 1.000000
v 1.000000 -0.534403 -0.007497
v 1.000000 -0.528409 1.000000
v 0.999473 -0.886569 0.413679
v 0.999473 -0.886569 0.915426
v 0.999473 -0.653770 0.411678
v 0.999473 -0.650774 0.915426
v 3.182003 -0.886568 0.413679
v 3.182003 -0.886568 0.915427
v 3.182003 -0.653770 0.411678
v 3.182003 -0.650773 0.915427
v 0.998705 -0.892309 -0.884341
v 0.998705 -0.892309 -0.386089
v 0.998705 -0.659511 -0.388090
v 0.998705 -0.662463 -0.884341
v 3.155916 -0.892309 -0.884341
v 3.155916 -0.892309 -0.386089
v 3.155916 -0.659511 -0.388090
v 3.155916 -0.662463 -0.884341
vt 0.277999 0.481092
vt 0.277999 0.720797
vt 0.277999 0.962184
vt 0.226246 0.962184
vt 0.226246 0.481092
vt 0.329751 0.962180
vt 0.277999 0.962180
vt 0.277999 0.481092
vt 0.329751 0.481092
vt 0.329751 0.726612
vt 0.089759 0.481092
vt 0.088329 0.242349
vt 0.118627 0.333899
vt 0.119342 0.453271
vt 0.645674 0.718640
vt 0.645674 0.605202
vt 0.645674 0.518908
vt 0.697427 0.518908
vt 0.697427 0.718640
vt 0.201084 0.000000
vt 0.402168 0.000000
vt 0.402168 0.481092
vt 0.201084 0.481092
vt 0.381504 0.481092
vt 0.381504 0.570247
vt 0.381504 0.680824
vt 0.329752 0.680824
vt 0.329751 0.481092
vt 0.000000 0.000000
vt 0.000000 0.000000
vt 0.000000 0.000000
vt 0.000000 0.000000
vt 0.000000 0.000000
vt 0.000000 0.000000
vt 0.000000 0.000000
vt 0.000000 0.481092
vt 0.000000 0.245522
vt 0.086878 0.000000
vt 0.000000 0.000000
vt 0.000000 0.000000
vt 0.000000 0.000000
vt 0.000000 0.000000
vt 0.226246 0.481092
vt 0.226246 0.723445
vt 0.196735 0.702927
vt 0.196735 0.581750
vt 0.000000 0.000000
vt 0.000000 0.000000
vt 0.943621 0.524998
vt 0.886518 0.524998
vt 0.886518 0.000000
vt 0.943621 0.000000
vt 0.113487 0.481388
vt 0.140355 0.581898
vt 0.112041 0.722771
vt 0.139633 0.702589
vt 0.402168 0.525480
vt 0.458546 0.524998
vt 0.459271 0.646173
vt 0.402168 0.646173
vt 0.524164 0.000000
vt 0.645674 0.000000
vt 0.645674 0.524998
vt 0.524164 0.524998
vt 0.524164 0.524998
vt 0.402168 0.524998
vt 0.402168 0.000000
vt 0.524164 0.000000
vt 1.000000 0.524998
vt 0.943621 0.524998
vt 0.943621 0.000000
vt 1.000000 0.000000
vt 0.886518 0.518908
vt 0.766338 0.518908
vt 0.766337 0.000000
vt 0.886518 0.000000
vt 0.201084 0.241387
vt 0.175004 0.333418
vt 0.201084 0.481092
vt 0.175004 0.453271
vt 0.515649 0.644851
vt 0.459986 0.644851
vt 0.459271 0.525480
vt 0.515649 0.524998
vt 0.000000 0.481092
vt 0.056379 0.481092
vt 0.056379 1.000000
vt 0.000000 1.000000
vt 0.112041 1.000000
vt 0.056379 1.000000
vt 0.056379 0.481092
vt 0.112041 0.481092
vt 0.766337 0.518908
vt 0.645674 0.518908
vt 0.645674 0.000000
vt 0.766337 0.000000
vn 0.0000 -1.0000 0.0000
vn 0.0000 1.0000 0.0000
vn 0.9999 -0.0105 0.0001
vn -0.0000 -0.0000 1.0000
vn -1.0000 -0.0000 -0.0000
vn 0.0000 0.0000 -1.0000
vn 1.0000 -0.0000 0.0000
vn 1.0000 -0.0043 0.0000
vn 1.0000 0.0000 0.0013
vn 1.0000 0.0000 -0.0062
vn 1.0000 0.0046 0.0000
vn -0.0000 1.0000 -0.0059
vn 0.0000 -0.0086 -1.0000
vn 1.0000 -0.0000 -0.0034
vn 0.9999 -0.0000 0.0112
vn 0.9999 0.0120 0.0000
vn 0.0000 0.0086 1.0000
usemtl Material
s off
f 153/1/40 162/2/40 154/3/40 155/4/40 156/5/40
f 157/6/41 160/7/41 159/8/41 158/9/41 161/10/41
f 163/11/42 165/12/42 184/13/42 185/14/42
f 154/15/43 164/16/43 158/17/43 159/18/43 155/19/43
f 155/20/44 159/21/44 160/22/44 156/23/44
f 157/24/45 163/25/45 153/26/45 156/27/45 160/28/45
f 169/29/43 167/30/43 171/31/43 173/32/43
f 154/33/43 162/34/43 166/35/43 167/30/43
f 165/12/46 163/11/46 157/36/46 161/37/46
f 164/38/46 165/12/46 161/37/46 158/39/46
f 164/40/43 154/33/43 167/30/43 169/29/43
f 162/34/43 165/41/43 168/42/43 166/35/43
f 165/41/43 164/40/43 169/29/43 168/42/43
f 172/43/47 173/44/47 177/45/47 176/46/47
f 167/30/43 166/35/43 170/47/43 171/31/43
f 168/42/43 169/29/43 173/32/43 172/48/43
f 166/35/43 168/42/43 172/48/43 170/47/43
f 177/49/43 175/50/43 179/51/43 181/52/43
f 170/53/48 172/43/48 176/46/48 174/54/48
f 173/44/49 171/55/49 175/56/49 177/45/49
f 171/55/50 170/53/50 174/54/50 175/56/50
f 178/57/46 180/58/46 181/59/46 179/60/46
f 175/61/40 174/62/40 178/63/40 179/64/40
f 176/65/51 177/66/51 181/67/51 180/68/51
f 174/69/52 176/70/52 180/71/52 178/72/52
f 185/73/51 184/74/51 188/75/51 189/76/51
f 165/12/53 162/77/53 183/78/53 184/13/53
f 153/79/54 163/11/54 185/14/54 182/80/54
f 162/77/55 153/79/55 182/80/55 183/78/55
f 186/81/46 189/82/46 188/83/46 187/84/46
f 184/85/56 183/86/56 187/87/56 188/88/56
f 182/89/45 185/90/45 189/91/45 186/92/45
f 183/93/40 182/94/40 186/95/40 187/96/40
